<?xml version="1.0" standalone="no"?>
<!DOCTYPE svg PUBLIC "-//W3C//DTD SVG 20010904//EN"
 "http://www.w3.org/TR/2001/REC-SVG-20010904/DTD/svg10.dtd">
<svg version="1.0" xmlns="http://www.w3.org/2000/svg"
 width="1024.000000pt" height="1024.000000pt" viewBox="0 0 1024.000000 1024.000000"
 preserveAspectRatio="xMidYMid meet">

<g transform="translate(0.000000,1024.000000) scale(0.100000,-0.100000)"
fill="#000000" stroke="none">
<path d="M2775 7676 c-177 -45 -291 -172 -303 -336 -9 -137 64 -283 180 -356
77 -49 147 -64 296 -64 l140 0 11 -27 c13 -34 134 -364 166 -453 12 -36 66
-182 120 -325 88 -237 183 -503 331 -927 30 -86 61 -191 69 -233 44 -227 -8
-407 -178 -618 -154 -191 -214 -293 -256 -432 -76 -257 -29 -561 112 -721 l39
-44 -76 0 c-92 0 -139 -17 -160 -59 -29 -56 -12 -136 34 -161 14 -7 596 -12
1888 -16 l1868 -5 35 24 c64 43 73 131 18 183 -23 22 -41 29 -87 32 l-59 4 40
60 c108 162 118 358 27 538 -34 66 -136 168 -205 203 -126 63 -29 59 -1368 57
l-1219 -1 19 32 c30 53 163 184 232 227 34 23 88 52 120 64 l56 23 890 5 c829
5 894 7 945 24 217 72 323 184 445 466 69 158 230 524 444 1003 138 310 226
519 232 555 33 175 -45 338 -199 416 -106 53 -134 56 -697 56 -502 0 -521 -1
-553 -20 -60 -37 -68 -126 -16 -181 l27 -28 526 -3 c482 -3 529 -5 566 -21 52
-24 92 -62 105 -103 19 -56 21 -50 -295 -764 -87 -195 -216 -487 -286 -649
-71 -162 -143 -316 -160 -342 -57 -89 -139 -143 -259 -168 -40 -9 -252 -11
-785 -9 l-729 3 -47 124 -47 124 33 33 c41 40 51 81 32 125 -20 48 -43 63
-105 69 l-55 5 -38 105 c-21 58 -38 110 -38 117 -1 10 97 13 420 15 l421 3 27
31 c55 61 48 143 -16 175 -27 14 -93 16 -483 17 -249 1 -455 3 -457 6 -7 6
-83 208 -83 218 0 4 246 8 546 8 l546 0 29 29 c50 51 37 148 -24 183 -17 10
-162 14 -602 18 l-580 5 -22 60 c-12 33 -22 66 -22 73 -1 9 88 12 414 12 457
0 460 0 485 60 18 44 7 108 -24 139 l-26 26 -474 3 -474 3 -46 124 c-25 69
-46 129 -46 135 0 7 283 10 841 10 557 0 847 3 860 10 28 15 49 63 49 111 0
33 -6 47 -34 75 l-34 34 -889 0 -889 0 -19 53 c-140 395 -267 567 -505 687
-134 68 -161 73 -425 76 -172 2 -254 0 -290 -10z m515 -239 c180 -60 308 -179
392 -364 32 -72 120 -307 329 -883 77 -212 195 -533 261 -715 66 -181 160
-440 209 -575 50 -135 97 -262 105 -284 8 -21 13 -41 10 -43 -3 -3 -42 -20
-86 -39 -157 -64 -317 -188 -421 -327 -55 -74 -151 -254 -177 -333 l-10 -32
56 -6 c115 -13 218 -82 270 -181 24 -44 27 -61 27 -140 -1 -77 -5 -97 -27
-140 -51 -98 -169 -181 -273 -193 -50 -5 -146 20 -195 52 -88 59 -164 167
-189 270 -7 27 -12 91 -12 141 -1 161 44 280 160 430 181 234 252 359 296 525
30 115 34 280 9 411 -21 109 -230 700 -567 1599 -30 80 -87 234 -127 343 l-72
197 -187 0 c-201 0 -244 7 -291 47 -97 81 -77 211 38 248 64 20 405 15 472 -8z
m2850 -3672 c0 -3 -11 -27 -24 -54 -14 -26 -32 -85 -42 -131 -14 -71 -15 -93
-4 -159 16 -98 42 -163 91 -228 l40 -53 -920 0 -919 0 44 65 c62 94 84 172 84
305 0 101 -11 163 -45 243 -7 16 37 17 844 17 468 0 851 -2 851 -5z m555 -26
c99 -47 158 -143 156 -256 -2 -117 -63 -209 -172 -258 -53 -23 -70 -26 -116
-21 -73 9 -113 27 -166 75 -192 178 -60 507 195 486 32 -3 78 -14 103 -26z"/>
<path d="M3870 3642 c-47 -26 -73 -73 -72 -130 1 -80 74 -148 150 -138 56 7
75 19 109 63 21 28 28 47 27 80 -2 104 -124 175 -214 125z"/>
<path d="M6520 3540 c-13 -13 -20 -33 -20 -58 0 -104 150 -113 166 -10 5 30 2
41 -19 62 -33 33 -97 36 -127 6z"/>
<path d="M5896 6355 c-56 -29 -77 -89 -52 -148 26 -64 38 -67 261 -67 166 0
204 3 223 16 29 20 52 65 52 101 0 38 -34 91 -66 103 -14 6 -107 10 -207 10
-143 0 -188 -3 -211 -15z"/>
<path d="M6564 6336 c-28 -28 -34 -41 -34 -77 0 -80 50 -128 132 -129 l47 0
-31 -70 -31 -70 -334 0 c-362 0 -369 -1 -412 -56 -36 -46 -20 -138 28 -164 12
-6 132 -10 315 -10 163 0 296 -3 296 -8 0 -4 -20 -54 -45 -112 l-44 -105 -243
-5 c-254 -5 -272 -8 -302 -52 -31 -44 -11 -134 33 -158 12 -6 99 -10 210 -10
130 0 191 -3 191 -11 0 -6 -21 -62 -47 -124 l-48 -114 -558 -3 -559 -3 -29
-33 c-41 -46 -41 -111 0 -153 l29 -29 576 -2 c317 -1 606 -3 642 -3 l66 0 137
320 c76 176 173 399 216 495 42 96 119 272 170 390 51 118 105 241 119 273
l26 57 -241 0 -241 0 -34 -34z"/>
<path d="M2772 3123 c-67 -33 -83 -137 -29 -191 51 -50 176 -39 218 19 26 37
22 108 -7 141 -42 47 -123 61 -182 31z"/>
<path d="M7444 3133 c-12 -2 -34 -18 -50 -34 -25 -26 -29 -38 -29 -85 0 -50 3
-59 33 -85 93 -83 242 24 189 137 -25 51 -84 79 -143 67z"/>
</g>
</svg>
